<svg xmlns="http://www.w3.org/2000/svg" height="48" viewBox="0 -960 960 960" width="48" fill="#81b877"><path d="M487.078-692.844v-71.461q0-30.444 20.531-51.375t50.909-20.931h72.327v72.327q0 30.378-20.931 50.909t-51.375 20.531h-71.461ZM242.03-472.845q-46.048 0-78.96-32.816-32.912-32.815-32.912-78.92v-112.031h111.895q46.049 0 78.96 32.911 32.912 32.912 32.912 78.961v111.895H242.03ZM640-104.001q-38.887 0-74.283-12.19-35.397-12.19-64.255-35.272L461-110.616q-9.381 8.692-20.652 8.692t-19.732-8.692q-8.692-8.605-8.692-19.875 0-11.271 8.692-20.509l40.847-40.462q-23.082-28.858-35.272-64.255-12.19-35.396-12.19-74.283 0-94.541 65.731-160.577 65.73-66.037 160.974-66.446h225.293v225.932q-.77 94.712-65.949 160.901-65.179 66.189-160.05 66.189Zm0-58.384q69.779 0 118.389-48.769Q807-259.923 807.615-330.789v-167.826H640.779q-70.856-.385-119.625 48.951Q472.385-400.329 472.385-330q0 27.184 8.269 51.054 8.27 23.869 23.424 43.869L620.616-351q8.605-9.076 19.788-9.076t20.364 9.309q9.308 9.324 9.308 20.507 0 11.183-9.076 19.644L545.077-194.078q20 15.154 43.869 23.424 23.87 8.269 51.054 8.269Zm.385-168Z"/></svg>